<svg width="40" height="40" viewBox="0 0 40 40" fill="none" xmlns="http://www.w3.org/2000/svg"><circle cx="20" cy="20" r="20"/><path d="M27.67 16.68a1.86 1.86 0 0 0-.51-.85 2.03 2.03 0 0 0-.9-.5C25.01 15 20 15 20 15a51.1 51.1 0 0 0-6.26.32c-.34.09-.64.26-.9.5-.24.24-.42.53-.51.85a19.4 19.4 0 0 0-.33 3.67c0 1.22.1 2.45.33 3.66.09.32.27.61.51.84.25.24.56.41.9.5 1.27.33 6.26.33 6.26.33 2.09.02 4.18-.08 6.26-.31.34-.09.65-.26.9-.5.24-.23.42-.52.5-.85.24-1.2.35-2.43.34-3.66a17.72 17.72 0 0 0-.33-3.68Zm-9.27 5.94v-4.57l4.18 2.29-4.18 2.28Z"/></svg>